<?xml version="1.0" encoding="UTF-8" standalone="no"?><!DOCTYPE svg PUBLIC "-//W3C//DTD SVG 1.1//EN" "http://www.w3.org/Graphics/SVG/1.1/DTD/svg11.dtd"><svg width="100%" height="100%" viewBox="0 0 260 260" version="1.1" xmlns="http://www.w3.org/2000/svg" xmlns:xlink="http://www.w3.org/1999/xlink" xml:space="preserve" xmlns:serif="http://www.serif.com/" style="fill-rule:evenodd;clip-rule:evenodd;stroke-linejoin:round;stroke-miterlimit:2;"><circle cx="130" cy="130" r="130" style="fill:#a1988f;"/><path d="M130,-0c71.749,-0 130,58.251 130,130c0,71.749 -58.251,130 -130,130c-71.749,0 -130,-58.251 -130,-130c-0,-71.749 58.251,-130 130,-130Zm0,6c-68.437,-0 -124,55.563 -124,124c-0,68.437 55.563,124 124,124c68.437,0 124,-55.563 124,-124c0,-68.437 -55.563,-124 -124,-124Z" style="fill:#fff;"/><path d="M140.49,65.924l-0,148.223l-9.425,-0.418l-9.424,0.634l-0,-148.439c-11.15,0 -19.078,0.143 -23.797,0.429c-4.706,0.286 -12.431,0.999 -23.137,2.142l0.634,-6.428l-0.634,-6.43l110.586,-0l-0.648,6.43l0.648,6.428c-5.286,-0.571 -11.973,-1.143 -20.049,-1.713c-8.063,-0.572 -24.754,-0.858 -24.754,-0.858Z" style="fill:#fff;"/></svg>