<?xml version="1.0" encoding="UTF-8" standalone="no"?><!DOCTYPE svg PUBLIC "-//W3C//DTD SVG 1.1//EN" "http://www.w3.org/Graphics/SVG/1.1/DTD/svg11.dtd"><svg width="100%" height="100%" viewBox="0 0 1284 2113" version="1.1" xmlns="http://www.w3.org/2000/svg" xmlns:xlink="http://www.w3.org/1999/xlink" xml:space="preserve" xmlns:serif="http://www.serif.com/" style="fill-rule:evenodd;clip-rule:evenodd;stroke-linejoin:round;stroke-miterlimit:2;"><path d="M-0,1470.73l-0,-828.956c-0,-79.953 14.652,-156.512 41.416,-227.134l0,1283.22c-26.764,-70.622 -41.416,-147.181 -41.416,-227.134Zm85.894,320.753l-0,-1470.46c13.449,-23.242 28.315,-45.564 44.477,-66.848l0,1604.16c-16.162,-21.284 -31.028,-43.606 -44.477,-66.848Zm88.955,119.355l-0,-1709.17c14.131,-14.986 28.975,-29.292 44.477,-42.865l0,1794.9c-15.502,-13.573 -30.346,-27.879 -44.477,-42.865Zm88.955,78.467l-0,-1866.11c14.384,-10.507 29.222,-20.43 44.477,-29.735l0,1925.58c-15.255,-9.305 -30.093,-19.228 -44.477,-29.735Zm88.955,54.496l-0,-1975.1c14.518,-7.343 29.352,-14.15 44.477,-20.396l0,2015.89c-15.125,-6.246 -29.959,-13.053 -44.477,-20.396Zm88.955,36.853l-0,-2048.8c14.602,-4.793 29.435,-9.076 44.477,-12.827l0,2074.46c-15.042,-3.751 -29.875,-8.034 -44.477,-12.827Zm88.954,22.248l0,-2093.3c14.662,-2.563 29.494,-4.628 44.478,-6.177l-0,2105.65c-14.984,-1.549 -29.816,-3.614 -44.478,-6.177Zm88.955,9.224l0,-2111.75c7.353,-0.25 14.736,-0.376 22.149,-0.376c7.473,-0 14.917,0.128 22.329,0.382l-0,2111.74c-7.412,0.254 -14.856,0.382 -22.329,0.382c-7.413,-0 -14.796,-0.126 -22.149,-0.376Zm88.955,-3.066l0,-2105.62c14.985,1.553 29.817,3.622 44.478,6.19l-0,2093.24c-14.661,2.568 -29.493,4.637 -44.478,6.19Zm88.955,-15.624l0,-2074.37c15.043,3.756 29.876,8.043 44.478,12.841l-0,2048.69c-14.602,4.798 -29.435,9.085 -44.478,12.841Zm88.955,-29.314l0,-2015.74c15.125,6.251 29.96,13.064 44.478,20.412l-0,1974.92c-14.518,7.348 -29.353,14.161 -44.478,20.412Zm88.955,-45.192l0,-1925.36c15.256,9.312 30.093,19.242 44.478,29.757l-0,1865.84c-14.385,10.515 -29.222,20.445 -44.478,29.757Zm88.955,-65.385l0,-1794.59c15.503,13.583 30.347,27.901 44.478,42.898l-0,1708.79c-14.131,14.997 -28.975,29.315 -44.478,42.898Zm88.955,-95.451l0,-1603.68c16.165,21.308 31.031,43.655 44.478,66.922l-0,1469.84c-13.447,23.267 -28.313,45.614 -44.478,66.922Zm88.955,-160.706l0,-1282.27c26.65,70.49 41.236,146.884 41.236,226.658l0,828.956c0,79.774 -14.586,156.168 -41.236,226.658Z" style="fill:#b3aba3;"/></svg>