<?xml version="1.0" encoding="UTF-8" standalone="no"?>
<!DOCTYPE svg PUBLIC "-//W3C//DTD SVG 1.1//EN" "http://www.w3.org/Graphics/SVG/1.1/DTD/svg11.dtd">
<svg width="100%" height="100%" viewBox="0 0 719 719" version="1.1" xmlns="http://www.w3.org/2000/svg" xmlns:xlink="http://www.w3.org/1999/xlink" xml:space="preserve" style="fill-rule:evenodd;clip-rule:evenodd;stroke-linejoin:round;stroke-miterlimit:2;">
    <g transform="matrix(1,0,0,1,-1511.75,-610.489)">
        <g transform="matrix(1.18957,0,0,1.18957,-251.602,-224.37)">
            <g transform="matrix(0.840642,0,0,0.840642,211.507,188.615)">
                <path d="M1870.86,610.489C1672.66,610.489 1511.75,771.401 1511.75,969.598C1511.75,1167.8 1672.66,1328.71 1870.86,1328.71C2069.06,1328.71 2229.97,1167.8 2229.97,969.598C2229.97,771.401 2069.06,610.489 1870.86,610.489ZM1870.86,618.823C2064.46,618.823 2221.64,776 2221.64,969.598C2221.64,1163.2 2064.46,1320.37 1870.86,1320.37C1677.26,1320.37 1520.08,1163.2 1520.08,969.598C1520.08,776 1677.26,618.823 1870.86,618.823ZM1783.4,1002.79L1780.22,1002.79C1779.37,1002.79 1778.53,1002.81 1777.68,1002.87C1776.83,1002.92 1775.88,1003 1774.82,1003.1C1773.76,1003.21 1772.38,1003.32 1770.68,1003.42C1770.79,1002.89 1770.87,1002.31 1770.92,1001.67C1770.98,1001.04 1771,1000.3 1771,999.448C1771,998.601 1770.98,997.885 1770.92,997.302C1770.87,996.72 1770.79,996.11 1770.68,995.474C1771.85,995.58 1773.55,995.739 1775.77,995.951C1776.83,996.057 1778,996.137 1779.27,996.19C1780.54,996.243 1781.92,996.269 1783.4,996.269L1783.4,988.481C1783.4,986.043 1783.29,982.758 1783.08,978.625C1784.14,978.413 1785.47,977.99 1787.06,977.354C1788.64,976.718 1790.21,976.029 1791.75,975.287C1793.28,974.546 1794.74,973.804 1796.12,973.062C1797.49,972.32 1798.55,971.737 1799.3,971.313C1799.08,974.599 1798.92,977.248 1798.82,979.261C1798.71,981.275 1798.63,983.103 1798.58,984.745C1798.53,986.388 1798.47,988.057 1798.42,989.752C1798.37,991.448 1798.29,993.62 1798.18,996.269C1801.15,996.269 1804.06,996.19 1806.92,996.031C1809.79,995.872 1812.59,995.686 1815.35,995.474C1815.24,996.11 1815.16,996.72 1815.11,997.302C1815.06,997.885 1815.03,998.601 1815.03,999.448C1815.03,1000.3 1815.06,1001.01 1815.11,1001.59C1815.16,1002.18 1815.24,1002.73 1815.35,1003.26C1813.34,1003.16 1810.79,1003.05 1807.72,1002.95C1804.65,1002.84 1801.47,1002.79 1798.18,1002.79C1797.87,1010.1 1797.65,1017.36 1797.55,1024.56C1797.44,1031.77 1797.39,1039.03 1797.39,1046.34C1797.39,1052.8 1798.1,1057.73 1799.53,1061.12C1800.96,1064.51 1803.96,1066.21 1808.51,1066.21C1809.26,1066.21 1810.39,1066.1 1811.93,1065.89C1813.47,1065.68 1814.77,1065.47 1815.83,1065.26C1815.61,1066.1 1815.51,1066.79 1815.51,1067.32C1815.51,1067.85 1815.61,1068.65 1815.83,1069.71C1814.03,1070.77 1811.77,1071.53 1809.07,1072.01C1806.37,1072.49 1804.12,1072.73 1802.32,1072.73C1797.76,1072.73 1794.13,1071.72 1791.43,1069.71C1788.73,1067.69 1786.68,1065.52 1785.31,1063.19C1784.67,1062.13 1784.14,1060.62 1783.72,1058.66C1783.29,1056.7 1783.08,1053.23 1783.08,1048.25L1783.08,1042.76C1783.08,1041.33 1783.11,1039.42 1783.16,1037.04C1783.21,1034.66 1783.29,1031.61 1783.4,1027.9L1783.4,1002.79ZM1891.11,1053.31L1890.95,1061.5C1886.82,1064.44 1882.48,1066.72 1877.92,1068.35C1873.36,1069.98 1868.6,1070.79 1863.62,1070.79C1852.38,1070.79 1843.32,1067.29 1836.43,1060.3C1829.55,1053.31 1826.1,1043.77 1826.1,1031.69C1826.1,1020.14 1829.17,1010.87 1835.32,1003.87C1841.89,996.347 1850.95,992.585 1862.5,992.585C1871.93,992.585 1879.51,995.724 1885.23,1002C1891.59,1008.92 1894.77,1018.81 1894.77,1031.69L1862.5,1031.21L1840.09,1031.21C1840.09,1040.7 1842.26,1048.4 1846.61,1054.31C1851.48,1060.85 1858.48,1064.12 1867.59,1064.12C1872.46,1064.12 1877.18,1062.86 1881.74,1060.35C1884.81,1058.68 1887.93,1056.33 1891.11,1053.31ZM1991.26,1030.89C1991.26,1019.66 1995.1,1010.47 2002.79,1003.32C2010.47,996.162 2020.09,992.585 2031.64,992.585C2042.55,992.585 2051.43,996.109 2058.26,1003.16C2065.1,1010.2 2068.51,1019.61 2068.51,1031.37C2068.51,1042.18 2065.18,1051.29 2058.5,1058.71C2051.19,1066.76 2041.28,1070.79 2028.78,1070.79C2017.86,1070.79 2008.88,1067.16 2001.83,1059.9C1994.79,1052.64 1991.26,1042.97 1991.26,1030.89ZM1696.43,1069.68L1696.43,993.539L1702.79,994.016L1709.14,993.539L1709.14,1008C1711.9,1003.13 1715.48,999.341 1719.87,996.639C1724.27,993.936 1729.23,992.585 1734.74,992.585C1743.74,992.585 1750.26,995.076 1754.29,1000.06C1758.32,1005.04 1760.33,1012.88 1760.33,1023.58L1760.33,1069.52L1753.97,1069.04L1747.61,1069.68L1747.61,1027.3C1747.61,1018.8 1746.55,1012.53 1744.43,1008.5C1741.68,1003.4 1736.86,1000.85 1729.97,1000.85C1722.13,1000.85 1716.56,1003.71 1713.28,1009.43C1710.52,1014.31 1709.14,1022.05 1709.14,1032.64L1709.14,1069.52L1702.79,1069.04L1696.43,1069.68ZM1976.44,993.539L1976.44,1069.68L1970.09,1069.04L1963.73,1069.52L1963.73,993.539L1970.09,994.016L1976.44,993.539ZM1908.72,1069.68L1908.72,993.539L1915.07,994.016L1921.43,993.38L1921.43,1009.43L1922.23,1007.53C1925.09,1002.97 1928.06,999.473 1931.13,997.036C1934.84,994.069 1938.55,992.585 1942.26,992.585C1944.38,992.585 1946.02,992.85 1947.18,993.38L1944.96,1006.73C1944.43,1006.63 1943.32,1006.18 1941.62,1005.38C1939.92,1004.59 1938.55,1004.19 1937.49,1004.19C1935.68,1004.19 1933.83,1004.53 1931.92,1005.22C1930.02,1005.91 1928.48,1006.89 1927.31,1008.16C1924.88,1011.02 1923.29,1013.94 1922.55,1016.9C1921.8,1019.87 1921.43,1023.69 1921.43,1028.35L1921.43,1069.52L1915.07,1069.04L1908.72,1069.68ZM2083.14,1069.68L2083.14,993.539L2089.49,994.016L2095.85,993.38L2095.85,1009.43L2096.65,1007.53C2099.51,1002.97 2102.48,999.473 2105.55,997.036C2109.26,994.069 2112.97,992.585 2116.68,992.585C2118.8,992.585 2120.44,992.85 2121.6,993.38L2119.38,1006.73C2118.85,1006.63 2117.74,1006.18 2116.04,1005.38C2114.34,1004.59 2112.97,1004.19 2111.91,1004.19C2110.11,1004.19 2108.25,1004.53 2106.34,1005.22C2104.44,1005.91 2102.9,1006.89 2101.73,1008.16C2099.3,1011.02 2097.71,1013.94 2096.97,1016.9C2096.22,1019.87 2095.85,1023.69 2095.85,1028.35L2095.85,1069.52L2089.49,1069.04L2083.14,1069.68ZM1668.91,863.55L1668.91,1069.38L1661.92,1069.07L1654.93,1069.54L1654.93,863.55C1646.66,863.55 1640.78,863.656 1637.28,863.868C1633.79,864.08 1628.06,864.609 1620.12,865.457L1620.59,860.689L1620.12,855.92L1702.14,855.92L1701.66,860.689L1702.14,865.457C1698.22,865.033 1693.26,864.609 1687.27,864.186C1681.29,863.762 1668.91,863.55 1668.91,863.55ZM2031.48,997.513C2022.15,997.513 2015.27,1001.33 2010.81,1008.96C2007.11,1015.21 2005.25,1023.32 2005.25,1033.28C2005.25,1042.29 2007.11,1049.7 2010.81,1055.53C2015.16,1062.42 2021.57,1065.86 2030.05,1065.86C2038.42,1065.86 2044.83,1061.57 2049.28,1052.99C2052.78,1046.31 2054.53,1038.84 2054.53,1030.58C2054.53,1021.89 2052.94,1014.63 2049.76,1008.8C2045.62,1001.27 2039.53,997.513 2031.48,997.513ZM1840.09,1025.33L1882.37,1025.33C1882.37,1017.12 1881.05,1010.73 1878.4,1006.15C1875.11,1000.39 1869.81,997.513 1862.5,997.513C1855.4,997.513 1849.79,1000.44 1845.65,1006.31C1841.94,1011.53 1840.09,1017.87 1840.09,1025.33ZM1862.87,986.686L1862.87,888.665L1869.23,889.141L1875.59,888.665L1875.59,904.719C1879.19,898.361 1882.79,894.069 1886.39,891.844C1890.95,889.088 1896.41,887.711 1902.77,887.711C1912.62,887.711 1920.52,891.367 1926.45,898.679C1931.96,905.461 1934.72,913.938 1934.72,924.111C1934.72,936.934 1931.56,947.107 1925.26,954.631C1918.95,962.154 1910.66,965.916 1900.38,965.916C1894.77,965.916 1889.97,964.645 1886,962.101C1882.02,959.558 1878.66,955.743 1875.9,950.657L1875.67,990.23C1871.83,988.321 1867.57,987.134 1862.87,986.686ZM1978.19,976.856C1978.19,979.081 1977.4,980.988 1975.81,982.578C1974.22,984.168 1972.31,984.962 1970.09,984.962C1967.86,984.962 1965.95,984.168 1964.36,982.578C1962.77,980.988 1961.98,979.081 1961.98,976.856C1961.98,974.63 1962.77,972.723 1964.36,971.133C1965.95,969.544 1967.86,968.749 1970.09,968.749C1972.21,968.749 1974.09,969.517 1975.73,971.054C1977.37,972.59 1978.19,974.524 1978.19,976.856ZM1755.46,914.415L1755.46,955.902C1755.78,958.128 1757.21,959.24 1759.75,959.24C1761.13,959.24 1762.66,959.028 1764.36,958.604L1764.36,962.101C1763.83,962.313 1763.07,962.605 1762.07,962.976C1761.07,963.347 1759.97,963.638 1758.76,963.85C1757.55,964.062 1756.1,964.168 1754.42,964.168C1751.37,964.168 1748.87,963.426 1746.93,961.942C1744.98,960.459 1743.8,957.969 1743.38,954.472L1741.94,955.902C1735.24,962.578 1727.37,965.916 1718.34,965.916C1712.49,965.916 1707.49,964.115 1703.34,960.512C1699.19,956.909 1697.12,952.246 1697.12,946.524C1697.12,938.47 1700.14,932.695 1706.18,929.198C1709.89,927.078 1716.67,925.224 1726.53,923.634C1733.42,922.469 1737.76,921.409 1739.56,920.455C1742.11,919.078 1743.38,916.588 1743.38,912.985C1743.38,907.05 1741.76,902.467 1738.53,899.235C1735.3,896.003 1730.71,894.387 1724.78,894.387C1719.69,894.387 1715.24,895.765 1711.43,898.52C1708.46,900.639 1706.61,902.917 1705.86,905.355L1704.12,905.355L1704.12,896.453C1708.25,893.592 1712.41,891.42 1716.59,889.936C1720.78,888.453 1725.15,887.711 1729.71,887.711C1746.88,887.711 1755.46,896.612 1755.46,914.415ZM2015.12,948.431L2014.96,956.622C2010.83,959.563 2006.48,961.847 2001.92,963.475C1997.37,965.102 1992.6,965.916 1987.62,965.916C1976.38,965.916 1967.33,962.419 1960.44,955.425C1953.55,948.431 1950.1,938.894 1950.1,926.814C1950.1,915.263 1953.18,905.991 1959.32,898.997C1965.89,891.473 1974.95,887.711 1986.51,887.711C1995.94,887.711 2003.51,890.849 2009.24,897.126C2015.59,904.043 2018.77,913.938 2018.77,926.814L1986.51,926.337L1964.09,926.337C1964.09,935.828 1966.27,943.526 1970.61,949.432C1975.48,955.971 1982.48,959.24 1991.59,959.24C1996.47,959.24 2001.18,957.987 2005.74,955.48C2008.81,953.809 2011.94,951.46 2015.12,948.431ZM1842.34,888.506L1842.34,964.645L1835.98,964.168L1829.62,964.645L1829.62,950.975C1824.43,960.936 1816.01,965.916 1804.35,965.916C1795.45,965.916 1788.85,963.506 1784.56,958.684C1780.27,953.862 1778.12,946.1 1778.12,935.397L1778.12,888.665L1784.48,889.141L1790.84,888.506L1790.84,931.523C1790.84,940.444 1792.29,947.108 1795.21,951.516C1798.12,955.924 1803.08,958.128 1810.07,958.128C1817.38,958.128 1822.68,955.266 1825.97,949.544C1828.4,945.305 1829.62,939.636 1829.62,932.536L1829.62,888.665L1835.98,889.141L1842.34,888.506ZM1742.74,948.272L1742.74,925.065L1737.18,926.178C1727.96,927.979 1722.13,929.41 1719.69,930.47C1713.34,933.331 1710.16,937.94 1710.16,944.299C1710.16,949.173 1711.53,952.882 1714.29,955.425C1717.04,957.969 1720.86,959.24 1725.73,959.24C1727.75,959.24 1729.97,958.631 1732.41,957.412C1734.85,956.194 1736.86,954.79 1738.45,953.2C1739.3,952.458 1740.23,951.584 1741.23,950.577C1742.24,949.571 1742.74,948.802 1742.74,948.272ZM1875.59,928.721C1875.59,937.728 1877.44,944.934 1881.15,950.339C1885.28,956.273 1891.22,959.24 1898.95,959.24C1906.37,959.24 1911.99,955.796 1915.8,948.908C1919.09,942.868 1920.73,934.814 1920.73,924.747C1920.73,915.634 1919.24,908.428 1916.28,903.129C1912.57,896.453 1906.74,893.115 1898.79,893.115C1890.53,893.115 1884.38,897.195 1880.35,905.355C1877.17,911.713 1875.59,919.502 1875.59,928.721ZM1964.09,920.455L2006.37,920.455C2006.37,912.249 2005.05,905.855 2002.4,901.272C1999.12,895.516 1993.82,892.638 1986.51,892.638C1979.4,892.638 1973.79,895.569 1969.66,901.431C1965.95,906.653 1964.09,912.994 1964.09,920.455Z" style="fill:white;"/>
            </g>
        </g>
    </g>
</svg>
